<?xml version="1.0" standalone="no"?>
<!DOCTYPE svg PUBLIC "-//W3C//DTD SVG 20010904//EN" "http://www.w3.org/TR/2001/REC-SVG-20010904/DTD/svg10.dtd">
<svg version="1.0" xmlns="http://www.w3.org/2000/svg" width="32.000000pt" height="32.000000pt"
  viewBox="0 0 32.000000 32.000000" preserveAspectRatio="xMidYMid meet">

  <g transform="translate(0.000000,32.000000) scale(0.100000,-0.100000)" fill="#1f9cf0" stroke="none">
    <path d="M5 290 c-9 -15 4 -91 21 -117 7 -12 27 -24 44 -28 l31 -7 -33 -16
c-39 -20 -48 -54 -22 -83 24 -26 59 -24 82 6 25 31 39 31 64 0 23 -30 58 -32
82 -6 26 29 17 63 -23 83 l-33 17 35 6 c39 8 52 27 62 99 6 36 4 47 -8 52 -20
7 -53 -10 -101 -55 -22 -20 -36 -28 -32 -18 16 45 18 52 5 32 -28 -44 -35 -45
-65 -14 -46 48 -96 70 -109 49z m85 -47 c50 -49 73 -93 48 -93 -16 0 -58 63
-58 87 0 9 -3 13 -7 10 -3 -4 -15 1 -27 10 -18 16 -17 14 3 -14 l22 -33 -26 0
c-24 0 -26 3 -23 40 1 22 6 40 11 40 5 0 30 -21 57 -47z m190 22 c-12 -13 -27
-22 -31 -19 -5 3 -9 -2 -9 -11 0 -22 -43 -85 -58 -85 -25 0 -2 44 48 93 49 48
93 68 50 22z m22 -25 c-3 -24 -9 -30 -28 -30 l-25 0 23 30 c12 17 25 30 28 30
4 0 5 -13 2 -30z m-204 -68 c15 -23 15 -23 -14 -16 -54 13 -77 48 -28 42 15
-2 34 -13 42 -26z m192 19 c0 -13 -22 -27 -53 -35 -29 -7 -30 -2 -4 32 11 14
57 17 57 3z m-152 -69 c9 -7 10 -15 3 -35 -6 -15 -15 -27 -20 -27 -17 0 -19
25 -2 45 16 20 16 20 -6 2 -12 -10 -32 -17 -45 -15 -22 3 -22 4 7 20 34 20 45
21 63 10z m105 -9 c30 -17 31 -18 9 -21 -13 -2 -33 5 -45 15 -22 18 -22 18 -6
-2 17 -20 15 -45 -2 -45 -5 0 -14 12 -20 27 -7 20 -6 28 3 35 18 11 25 10 61
-9z m-143 -52 c5 -11 10 -22 10 -25 0 -13 -38 -5 -51 10 -10 13 -10 17 2 25
21 13 27 11 39 -10z m159 10 c12 -8 12 -12 2 -25 -13 -15 -51 -23 -51 -10 0
11 21 44 28 44 4 0 13 -4 21 -9z" />
    <path d="M130 261 c0 -6 4 -13 10 -16 6 -3 7 1 4 9 -7 18 -14 21 -14 7z" />
  </g>
</svg>
