<svg width="24" height="24" viewBox="0 0 24 24" fill="none" xmlns="http://www.w3.org/2000/svg">
  <path
    d="M2 12.0614C2.00116 17.0111 5.5784 21.2255 10.437 22.0012V14.9692H7.9V12.0614H10.44V9.84786C10.3265 8.79898 10.6825 7.75363 11.4116 6.99534C12.1408 6.23703 13.1674 5.84437 14.213 5.92385C14.9635 5.93604 15.7122 6.0033 16.453 6.12508V8.59922H15.189C14.7538 8.54187 14.3164 8.68647 13.9998 8.99229C13.6832 9.2981 13.5218 9.73203 13.561 10.1718V12.0614H16.332L15.889 14.9702H13.561V22.0012C18.8155 21.1657 22.5001 16.3373 21.9455 11.0141C21.3909 5.69079 16.7913 1.73615 11.4788 2.01511C6.16636 2.29407 2.00084 6.70896 2 12.0614Z"
    fill="currentColor" />
</svg>
