<svg width="24" height="24" viewBox="0 0 24 24" fill="none" xmlns="http://www.w3.org/2000/svg">
  <path fill-rule="evenodd" clip-rule="evenodd"
    d="M8.41257 5.01109C7.86348 4.95252 7.30821 5.00827 6.78173 5.17484C6.25524 5.3414 5.76895 5.61518 5.35347 5.97892C4.93799 6.34265 4.60232 6.78848 4.3676 7.28832C4.13289 7.78816 4.00421 8.33118 3.98967 8.8832C3.97513 9.43521 4.07504 9.98426 4.28312 10.4958C4.49119 11.0073 4.80292 11.4701 5.19868 11.8553L5.20499 11.8614L5.20497 11.8614L12.0013 18.5925L18.7976 11.8614C18.8183 11.8409 18.8397 11.8215 18.8617 11.8031C19.2254 11.4301 19.5129 10.9893 19.7079 10.5055C19.9136 9.99491 20.0116 9.44734 19.996 8.89708C19.9803 8.34682 19.8513 7.80571 19.6169 7.30762C19.3825 6.80954 19.0478 6.36519 18.6338 6.0024C18.2198 5.63961 17.7353 5.36618 17.2108 5.19922C16.6862 5.03227 16.1328 4.97538 15.5853 5.03213C15.0377 5.08887 14.5078 5.25802 14.0286 5.52899C13.5495 5.79997 13.1314 6.16693 12.8005 6.60691C12.6111 6.85892 12.3138 7.00681 11.9985 7.00593C11.6832 7.00505 11.3868 6.85552 11.1987 6.60245C10.8693 6.15925 10.4517 5.78906 9.97218 5.51518C9.49268 5.2413 8.96166 5.06967 8.41257 5.01109ZM20.136 13.3508L12.705 20.7104C12.3152 21.0964 11.6873 21.0964 11.2976 20.7104L3.80057 13.2854C3.20851 12.7084 2.74207 12.0152 2.43053 11.2494C2.11842 10.4821 1.96855 9.65855 1.99036 8.83053C2.01217 8.00251 2.20519 7.18798 2.55727 6.43822C2.90934 5.68846 3.41284 5.01972 4.03606 4.47411C4.65928 3.9285 5.38872 3.51784 6.17845 3.26799C6.96818 3.01814 7.80108 2.93451 8.62472 3.02238C9.44835 3.11024 10.2449 3.36768 10.9641 3.7785C11.3382 3.99215 11.6871 4.24487 12.0054 4.53174C12.3233 4.24834 12.6714 3.99885 13.0441 3.78808C13.7629 3.38162 14.5578 3.12789 15.3791 3.04278C16.2005 2.95766 17.0305 3.04299 17.8173 3.29343C18.6042 3.54386 19.3308 3.954 19.9519 4.49819C20.5729 5.04238 21.0749 5.7089 21.4265 6.45603C21.7781 7.20316 21.9717 8.01482 21.9952 8.84021C22.0187 9.66559 21.8715 10.4869 21.563 11.2529C21.2544 12.0188 20.7911 12.7127 20.202 13.2914C20.1807 13.3123 20.1586 13.3321 20.136 13.3508Z"
    fill="black" />
</svg>
