<svg width="21" height="20" viewBox="0 0 21 20" fill="none" xmlns="http://www.w3.org/2000/svg">
  <g clip-path="url(#clip0_10008_4402)">
    <path
      d="M19.4652 13.1899H16.269L19.0356 11.5924C19.2636 11.4619 19.4303 11.2461 19.4989 10.9924C19.5676 10.7387 19.5324 10.4682 19.4012 10.2406L17.0911 6.24062C16.9596 6.01318 16.7429 5.84736 16.489 5.77985C16.2351 5.71098 15.9642 5.74723 15.7374 5.88028L12.9702 7.47825L14.5673 4.71242C14.6998 4.48498 14.7362 4.21405 14.6686 3.95957C14.6009 3.7051 14.4345 3.48808 14.2065 3.35669L10.2071 1.04664C9.97948 0.915856 9.7093 0.88097 9.45603 0.949534C9.20277 1.0181 8.98711 1.18437 8.85647 1.41197L7.2585 4.18007V0.983212C7.25789 0.436811 6.81509 -0.00598771 6.26869 -0.0065918H1.64996C1.10356 -0.00598771 0.66076 0.436811 0.660156 0.983212V18.7985C0.66076 19.3449 1.10356 19.7877 1.64996 19.7883H19.4652C20.0116 19.7877 20.4544 19.3449 20.455 18.7985V14.1797C20.4544 13.6333 20.0116 13.1905 19.4652 13.1899ZM1.64996 13.1899C1.5373 13.1911 1.42569 13.2117 1.31998 13.2508V9.89085H3.96122L2.05651 13.1899H1.64996ZM14.9493 13.1899H10.4378L8.9264 10.5753L12.3545 8.59582L14.9925 13.1652L14.9493 13.1899ZM11.8269 8.13838L7.92119 10.3939L5.30487 8.88322L7.28357 5.45606L11.8526 8.09398L11.8269 8.13838ZM6.59868 5.3227L4.57135 8.83429C4.57029 8.83595 4.56863 8.83671 4.56757 8.83852L4.56576 8.8438L4.34225 9.23103H1.31998V5.27211H6.59868V5.3227ZM4.97503 9.45469L7.26137 10.7749L3.07909 13.1899H2.81842L4.97503 9.45469ZM8.08187 11.0631L8.0861 11.0607L8.35508 10.9053L9.67577 13.1899H4.39873L8.08187 11.0631ZM6.59868 13.8498H10.5576V19.1285H6.59868V13.8498ZM11.2174 13.8498H15.1763V19.1285H11.2174V13.8498ZM16.0686 6.451C16.1438 6.4066 16.2339 6.39436 16.3184 6.41702C16.4035 6.43997 16.4762 6.49555 16.5206 6.57182L18.8293 10.5697C18.8732 10.6457 18.885 10.736 18.8619 10.8207C18.8388 10.9053 18.7829 10.9773 18.7065 11.0203L15.5639 12.8349L12.9259 8.26569L16.0686 6.451ZM9.42855 1.74089C9.47174 1.66508 9.54347 1.6095 9.6279 1.58655C9.71217 1.56359 9.80218 1.57507 9.87799 1.61857L13.8753 3.92725C13.9521 3.9715 14.0083 4.04445 14.0314 4.13008C14.0541 4.2151 14.0415 4.30557 13.9965 4.38123L12.1828 7.5225L7.61355 4.88459L9.42855 1.74089ZM1.64996 0.653227H6.26869C6.45083 0.653529 6.59838 0.801079 6.59868 0.983212V4.61214H1.31998V0.983212C1.32028 0.801079 1.46783 0.653529 1.64996 0.653227ZM1.31998 18.7985V14.1797C1.32028 13.9976 1.46783 13.8501 1.64996 13.8498H5.93886V19.1285H1.64996C1.46783 19.1282 1.32028 18.9806 1.31998 18.7985ZM19.7952 18.7985C19.7949 18.9806 19.6474 19.1282 19.4652 19.1285H15.8363V13.8498H19.4652C19.6474 13.8501 19.7949 13.9976 19.7952 14.1797V18.7985Z"
      fill="#0F73F6" />
    <path
      d="M3.96026 15.1694C3.23143 15.1694 2.64062 15.7602 2.64062 16.4891C2.64062 17.2179 3.23143 17.8087 3.96026 17.8087C4.6891 17.8087 5.2799 17.2179 5.2799 16.4891C5.27915 15.7605 4.6888 15.1702 3.96026 15.1694ZM3.96026 17.1489C3.59584 17.1489 3.30044 16.8535 3.30044 16.4891C3.30044 16.1247 3.59584 15.8293 3.96026 15.8293C4.32468 15.8293 4.62008 16.1247 4.62008 16.4891C4.61978 16.8533 4.32453 17.1484 3.96026 17.1489Z"
      fill="#0F73F6" />
  </g>
  <defs>
    <clipPath id="clip0_10008_4402">
      <rect width="19.7949" height="19.7949" fill="white" transform="translate(0.660156 -0.0065918)" />
    </clipPath>
  </defs>
</svg>
