<svg width="20" height="20" viewBox="0 0 20 20" fill="none" xmlns="http://www.w3.org/2000/svg">
  <g clip-path="url(#clip0_10008_4406)">
    <path
      d="M19.632 14.3926L17.6031 13.3781L16.3118 10.0191C16.2966 9.97943 16.2733 9.94328 16.2435 9.91294C16.2137 9.88261 16.178 9.85875 16.1385 9.84285L8.12626 6.6401C8.07024 6.6178 8.00892 6.61236 7.94985 6.62444C7.89078 6.63653 7.83653 6.66563 7.79377 6.70814L6.72516 7.77676C6.6832 7.81955 6.65459 7.87361 6.64278 7.93236C6.63097 7.99111 6.63649 8.05203 6.65866 8.1077L9.86141 16.12C9.87731 16.1594 9.90117 16.1952 9.9315 16.225C9.96184 16.2548 9.99799 16.278 10.0377 16.2932L13.3966 17.5845L14.4111 19.6135C14.4325 19.6582 14.4643 19.6972 14.5039 19.727C14.5434 19.7569 14.5896 19.7768 14.6385 19.7851C14.6549 19.7867 14.6715 19.7867 14.688 19.7851C14.7699 19.7848 14.8483 19.752 14.906 19.6939L19.7125 14.8874C19.7478 14.8533 19.7746 14.8112 19.7904 14.7647C19.8063 14.7182 19.8108 14.6685 19.8037 14.6199C19.7954 14.571 19.7755 14.5249 19.7456 14.4853C19.7157 14.4457 19.6768 14.4139 19.632 14.3926ZM7.30663 8.06749L7.47829 7.89738L11.4666 11.8857C11.2038 12.2582 11.0903 12.7157 11.1485 13.1678C11.2068 13.62 11.4326 14.0338 11.7812 14.3274C12.1299 14.6211 12.5761 14.7733 13.0315 14.7538C13.487 14.7343 13.9185 14.5447 14.2409 14.2223C14.5632 13.9 14.7529 13.4684 14.7724 13.013C14.7918 12.5575 14.6397 12.1114 14.346 11.7627C14.0523 11.414 13.6385 11.1882 13.1864 11.13C12.7343 11.0717 12.2768 11.1852 11.9043 11.4481L7.91594 7.45973L8.08605 7.28807L15.7829 10.3671L16.9968 13.525L13.5436 16.9783L10.3857 15.7643L7.30663 8.06749ZM12.9528 11.7326C13.2308 11.7331 13.5 11.8298 13.7146 12.0065C13.9293 12.1831 14.076 12.4287 14.1299 12.7015C14.1837 12.9742 14.1414 13.2571 14.01 13.5021C13.8786 13.7471 13.6664 13.9389 13.4095 14.045C13.1525 14.151 12.8667 14.1647 12.6008 14.0837C12.3349 14.0027 12.1053 13.832 11.9511 13.6007C11.797 13.3694 11.7278 13.0918 11.7553 12.8151C11.7829 12.5385 11.9055 12.28 12.1022 12.0837C12.3281 11.8586 12.634 11.7323 12.9528 11.7326ZM14.773 18.9531L13.9998 17.4067L17.4221 13.9843L18.9686 14.7575L14.773 18.9531Z"
      fill="#0F73F6" />
    <path
      d="M5.92375 16.5374C5.8646 16.4815 5.7863 16.4504 5.70492 16.4504C5.62354 16.4504 5.54524 16.4815 5.48609 16.5374L5.09329 16.9302C4.04506 15.5076 3.46678 13.7933 3.43906 12.0264C3.41134 10.2594 3.93556 8.52787 4.93864 7.073C5.23917 7.23837 5.58519 7.30189 5.92486 7.25405C6.26452 7.20621 6.57954 7.04959 6.8227 6.80765C7.06586 6.56571 7.22406 6.25148 7.27361 5.91206C7.32316 5.57264 7.26137 5.2263 7.09752 4.92495C8.55238 3.92186 10.2839 3.39765 12.0509 3.42537C13.8178 3.45309 15.5321 4.03137 16.9548 5.0796L16.5558 5.46776C16.4982 5.52575 16.466 5.60414 16.4661 5.68582C16.4658 5.72652 16.4736 5.76687 16.489 5.80456C16.5044 5.84224 16.5271 5.87652 16.5558 5.90542L17.9198 7.25858C17.9777 7.31619 18.0561 7.34852 18.1378 7.34852C18.2195 7.34852 18.2979 7.31619 18.3559 7.25858L19.7121 5.90232C19.7409 5.8736 19.7637 5.83949 19.7792 5.80194C19.7948 5.76439 19.8028 5.72414 19.8028 5.6835C19.8028 5.64285 19.7948 5.6026 19.7792 5.56505C19.7637 5.52751 19.7409 5.4934 19.7121 5.46467L18.3559 4.10841C18.2979 4.05081 18.2195 4.01847 18.1378 4.01847C18.0561 4.01847 17.9777 4.05081 17.9198 4.10841L17.3955 4.62957C16.1034 3.6573 14.5759 3.04644 12.9696 2.85973C11.3634 2.67302 9.73648 2.91718 8.25583 3.56715L10.0389 1.7887C10.2411 1.88531 10.471 1.90717 10.6877 1.85042C10.9045 1.79367 11.0941 1.66198 11.223 1.47869C11.3519 1.29541 11.4118 1.0724 11.3919 0.849208C11.372 0.626021 11.2737 0.417092 11.1144 0.259488C10.9551 0.101883 10.7452 0.00579075 10.5218 -0.011741C10.2984 -0.0292727 10.076 0.0328891 9.89413 0.163717C9.71222 0.294544 9.58253 0.48558 9.52806 0.702932C9.4736 0.920284 9.49789 1.1499 9.59662 1.35105L6.58719 4.36513C6.28163 4.16016 5.91438 4.06764 5.54818 4.10337C5.18198 4.13911 4.83955 4.30087 4.57938 4.56105C4.31921 4.82122 4.15744 5.16365 4.1217 5.52985C4.08597 5.89605 4.17849 6.26329 4.38346 6.56885L1.36938 9.57829C1.16745 9.47989 0.937165 9.45627 0.719459 9.51163C0.501754 9.56698 0.310722 9.69772 0.180311 9.88063C0.0498993 10.0635 -0.0114459 10.2867 0.00717602 10.5106C0.0257979 10.7345 0.123181 10.9445 0.28202 11.1033C0.440859 11.2621 0.650868 11.3595 0.874727 11.3781C1.09859 11.3968 1.3218 11.3354 1.5047 11.205C1.6876 11.0746 1.81834 10.8836 1.8737 10.6659C1.92905 10.4482 1.90543 10.2179 1.80703 10.0159L3.59012 8.2375C2.9395 9.71775 2.69457 11.3445 2.88047 12.9507C3.06636 14.5569 3.67639 16.0847 4.64791 17.3772L4.1252 17.9014C4.06759 17.9594 4.03526 18.0378 4.03526 18.1195C4.03526 18.2012 4.06759 18.2796 4.1252 18.3375L5.48146 19.6938C5.53919 19.7519 5.61761 19.7847 5.69951 19.785C5.74032 19.7851 5.78074 19.777 5.81843 19.7614C5.85612 19.7457 5.89034 19.7227 5.91911 19.6938L7.27691 18.3375C7.33452 18.2796 7.36685 18.2012 7.36685 18.1195C7.36685 18.0378 7.33452 17.9594 7.27691 17.9014L5.92375 16.5374ZM18.1409 4.76102L19.0595 5.67963L18.1409 6.59824L17.2223 5.67963L18.1409 4.76102ZM10.2152 0.706169C10.2612 0.659833 10.3199 0.628195 10.3838 0.615268C10.4478 0.60234 10.5142 0.608707 10.5745 0.633559C10.6349 0.658412 10.6865 0.70063 10.7228 0.754857C10.7591 0.809085 10.7785 0.872877 10.7785 0.93814C10.7785 1.0034 10.7591 1.0672 10.7228 1.12142C10.6865 1.17565 10.6349 1.21787 10.5745 1.24272C10.5142 1.26757 10.4478 1.27394 10.3838 1.26101C10.3199 1.24808 10.2612 1.21645 10.2152 1.17011C10.1847 1.13966 10.1605 1.1035 10.144 1.0637C10.1275 1.02389 10.119 0.981228 10.119 0.93814C10.119 0.895051 10.1275 0.852385 10.144 0.812582C10.1605 0.772778 10.1847 0.736618 10.2152 0.706169ZM5.01906 5.00073C5.10887 4.91048 5.21563 4.83887 5.3332 4.79001C5.45077 4.74115 5.57683 4.71599 5.70415 4.71599C5.83147 4.71599 5.95753 4.74115 6.0751 4.79001C6.19267 4.83887 6.29942 4.91048 6.38924 5.00073C6.525 5.13627 6.6175 5.30904 6.65504 5.49718C6.69258 5.68531 6.67347 5.88035 6.60013 6.05762C6.52678 6.23489 6.4025 6.38642 6.24301 6.49303C6.08352 6.59965 5.89599 6.65656 5.70415 6.65656C5.51231 6.65656 5.32477 6.59965 5.16528 6.49303C5.00579 6.38642 4.88151 6.23489 4.80817 6.05762C4.73482 5.88035 4.71571 5.68531 4.75325 5.49718C4.79079 5.30904 4.8833 5.13627 5.01906 5.00073ZM1.18999 10.6608C1.12684 10.7135 1.04629 10.7406 0.964155 10.7369C0.882019 10.7332 0.804241 10.6989 0.746103 10.6408C0.687965 10.5826 0.653671 10.5049 0.64996 10.4227C0.646249 10.3406 0.673388 10.26 0.726046 10.1969C0.787937 10.1361 0.871241 10.102 0.958017 10.102C1.04479 10.102 1.1281 10.1361 1.18999 10.1969C1.22048 10.2273 1.24466 10.2635 1.26116 10.3033C1.27767 10.3431 1.28616 10.3858 1.28616 10.4289C1.28616 10.4719 1.27767 10.5146 1.26116 10.5544C1.24466 10.5942 1.22048 10.6304 1.18999 10.6608ZM5.70415 19.0319L4.78554 18.1133L5.70415 17.1947L6.62275 18.1133L5.70415 19.0319Z"
      fill="#0F73F6" />
  </g>
  <defs>
    <clipPath id="clip0_10008_4406">
      <rect width="19.7949" height="19.7949" fill="white" transform="translate(0.0078125 -0.00976562)" />
    </clipPath>
  </defs>
</svg>
