<svg xmlns="http://www.w3.org/2000/svg" width="48" height="44" viewBox="0 0 48 44" fill="none">
  <path
    d="M2.90625 23.5441H5.96316C7.64662 23.5441 9.01134 22.1794 9.01134 20.4959C9.01134 18.8125 10.3761 17.4478 12.0595 17.4478H16.2051C18.8313 17.4478 20.9603 15.3188 20.9603 12.6926C20.9603 10.0663 18.8313 7.93738 16.2051 7.93738"
    stroke="currentColor" stroke-width="1.12" stroke-miterlimit="10" stroke-linejoin="round" />
  <path
    d="M33.7617 34.6563C37.7457 34.6563 40.9755 31.4266 40.9755 27.4425C40.9755 24.3663 39.05 21.7398 36.3383 20.7025"
    stroke="currentColor" stroke-width="1.12" stroke-miterlimit="10" stroke-linejoin="round" />
  <path
    d="M30.2106 20.2288H22.4496C20.8933 20.2288 19.6317 21.4904 19.6317 23.0466C19.6317 24.6029 18.3701 25.8644 16.8139 25.8644H16.3958C13.9681 25.8644 12 27.8325 12 30.2603C11.9999 32.6881 13.968 34.6562 16.3957 34.6562"
    stroke="currentColor" stroke-width="1.12" stroke-miterlimit="10" stroke-linejoin="round" />
  <path
    d="M29.7463 34.6561V36.7186C29.7463 37.8577 28.8228 38.7811 27.6838 38.7811H20.3125C19.1734 38.7811 18.25 37.8577 18.25 36.7186V34.6561"
    stroke="currentColor" stroke-width="1.12" stroke-miterlimit="10" stroke-linejoin="round" />
  <path d="M37.7967 18.8947L32.9805 15.5223" stroke="currentColor" stroke-width="1.12" stroke-miterlimit="10"
    stroke-linejoin="round" />
  <path
    d="M42.8438 42.9062H5.15625C2.87803 42.9062 1.03125 41.0595 1.03125 38.7812V34.6562H46.9688V38.7812C46.9688 41.0595 45.122 42.9062 42.8438 42.9062Z"
    stroke="currentColor" stroke-width="1.12" stroke-miterlimit="10" stroke-linecap="round" stroke-linejoin="round" />
  <path
    d="M30.6016 20.1958C31.6321 17.7229 33.4227 14.5454 35.724 11.2588C40.2978 4.72672 45.1567 0.237407 46.5767 1.23163C47.9966 2.22584 45.4398 8.32719 40.8659 14.8593C38.5564 18.1575 36.1743 20.935 34.1989 22.7487"
    stroke="currentColor" stroke-width="1.12" stroke-miterlimit="10" stroke-linecap="round" stroke-linejoin="round" />
  <path
    d="M26.695 24.8889C26.9658 26.2797 26.632 27.6458 25.8789 28.7181C28.5781 29.807 31.7522 28.9969 33.5765 26.6062C34.9432 24.8152 34.6214 22.2241 32.7745 20.9339C31.0052 19.6978 28.5685 20.1285 27.3302 21.897C26.6961 22.8025 26.4992 23.8833 26.695 24.8889Z"
    stroke="currentColor" stroke-width="1.12" stroke-miterlimit="10" stroke-linecap="round" stroke-linejoin="round" />
  <path d="M45.092 34.6562V11.6875C45.092 10.8348 44.8075 10.0486 44.3281 9.4187" stroke="currentColor"
    stroke-width="1.12" stroke-miterlimit="10" stroke-linejoin="round" />
  <path d="M38.1573 7.9375H6.65625C4.58522 7.9375 2.90625 9.61647 2.90625 11.6875V34.6562" stroke="currentColor"
    stroke-width="1.12" stroke-miterlimit="10" stroke-linejoin="round" />
</svg>
