<svg width="300" height="50" viewBox="0 0 300 50" xmlns="http://www.w3.org/2000/svg">
  <path
    d="M0 49.5402V0.142822H21.9882C25.9347 0.142822 29.42 0.739569 32.4441 1.93306C35.5193 3.12656 37.9283 4.89469 39.6709 7.23748C41.4136 9.58026 42.2849 12.4756 42.2849 15.9235C42.2849 19.2829 41.388 22.134 39.594 24.4768C37.8514 26.8196 35.4424 28.6098 32.3672 29.8475C29.3432 31.041 25.8835 31.6378 21.9882 31.6378H11.9167V49.5402H0ZM11.9167 22.6866H22.065C23.7564 22.6866 25.2172 22.3993 26.4473 21.8246C27.6774 21.25 28.6256 20.4543 29.2919 19.4376C30.0095 18.421 30.3683 17.2496 30.3683 15.9235C30.3683 14.5531 30.0095 13.3597 29.2919 12.343C28.6256 11.3263 27.6774 10.5306 26.4473 9.95599C25.2172 9.38135 23.7564 9.09402 22.065 9.09402H11.9167V22.6866Z" />
  <path d="M47.5447 49.5402V13.3376H59.0769V49.5402H47.5447ZM47.5447 10.0886V0.142822H59.0769V10.0886H47.5447Z" />
  <path
    d="M62.6724 49.5402L77.3568 31.3726L62.5955 13.3376H75.9729L87.0438 27.3943H81.2008L92.2718 13.3376H105.649L90.8879 31.3726L105.495 49.5402H92.1949L81.3546 35.4835H86.8901L76.0498 49.5402H62.6724Z" />
  <path
    d="M109.188 49.5402V13.3376H119.952V22.1561L118.798 20.6974C119.413 17.9126 120.9 15.8572 123.257 14.531C125.615 13.2049 128.434 12.5419 131.714 12.5419C135.2 12.5419 138.249 13.3155 140.863 14.8626C143.529 16.3655 145.194 18.3988 145.861 20.9626L142.555 21.2279C143.939 18.2662 145.912 16.0782 148.475 14.6637C151.037 13.2491 154.036 12.5419 157.47 12.5419C160.494 12.5419 163.159 13.1165 165.466 14.2658C167.823 15.4151 169.668 17.0285 171.001 19.1061C172.334 21.1395 173 23.5265 173 26.2671V49.5402H161.468V28.3888C161.468 26.9743 161.16 25.7587 160.545 24.742C159.981 23.7254 159.161 22.9297 158.085 22.3551C157.009 21.7804 155.702 21.4931 154.164 21.4931C152.678 21.4931 151.371 21.7804 150.243 22.3551C149.167 22.9297 148.321 23.7254 147.706 24.742C147.142 25.7587 146.86 26.9743 146.86 28.3888V49.5402H135.328V28.3888C135.328 26.9743 135.02 25.7587 134.405 24.742C133.842 23.7254 133.021 22.9297 131.945 22.3551C130.869 21.7804 129.562 21.4931 128.024 21.4931C126.538 21.4931 125.231 21.7804 124.103 22.3551C123.027 22.9297 122.181 23.7254 121.566 24.742C121.002 25.7587 120.72 26.9743 120.72 28.3888V49.5402H109.188Z" />
  <path
    d="M192.044 50.3358C189.02 50.3358 186.406 49.9159 184.202 49.076C181.998 48.2362 180.307 47.0427 179.128 45.4956C177.949 43.9042 177.36 42.0256 177.36 39.8596C177.36 37.8263 177.898 36.036 178.974 34.4889C180.051 32.8976 181.691 31.5715 183.895 30.5106C186.15 29.4497 188.943 28.6983 192.275 28.2562L205.114 26.466V33.7595L194.351 35.4172C192.711 35.6824 191.455 36.1465 190.584 36.8096C189.712 37.4284 189.277 38.3346 189.277 39.5281C189.277 40.6332 189.764 41.4952 190.737 42.114C191.711 42.7328 192.916 43.0423 194.351 43.0423C196.247 43.0423 197.913 42.6886 199.348 41.9814C200.783 41.2741 201.885 40.3238 202.654 39.1303C203.474 37.8926 203.884 36.5444 203.884 35.0857V25.6703C203.884 24.3 203.243 23.1507 201.962 22.2224C200.732 21.2942 199.041 20.83 196.888 20.83C194.838 20.83 193.018 21.3163 191.429 22.2888C189.892 23.2612 188.764 24.5431 188.047 26.1345L178.821 22.3551C179.641 20.3217 180.948 18.5757 182.742 17.117C184.536 15.6582 186.688 14.531 189.2 13.7354C191.711 12.9397 194.453 12.5419 197.426 12.5419C200.963 12.5419 204.089 13.0944 206.806 14.1995C209.522 15.3046 211.624 16.8517 213.11 18.8409C214.648 20.7858 215.416 23.0623 215.416 25.6703V49.5402H204.653V43.7053L207.267 43.3075C206.037 44.8988 204.679 46.2249 203.192 47.2858C201.706 48.3025 200.04 49.0539 198.195 49.5402C196.35 50.0706 194.3 50.3358 192.044 50.3358Z" />
  <path
    d="M222.336 49.5402V13.3376H233.1V22.0235L232.331 20.7637C233.254 17.7137 234.766 15.6582 236.867 14.5974C239.02 13.4923 241.557 12.9397 244.478 12.9397H246.938V21.5594H243.325C240.506 21.5594 238.225 22.3109 236.483 23.8138C234.74 25.2725 233.869 27.35 233.869 30.0465V49.5402H222.336Z" />
  <path
    d="M272.177 49.938C267.102 49.938 263.156 48.7666 260.337 46.4238C257.569 44.0368 256.185 40.7216 256.185 36.4781V21.9572H249.112V13.3376H249.497C251.649 13.3376 253.289 12.8734 254.417 11.9451C255.596 11.0169 256.185 9.62447 256.185 7.76792V5.11571H267.717V13.3376H277.558V21.9572H267.717V35.815C267.717 37.0527 267.974 38.0915 268.486 38.9314C268.999 39.727 269.793 40.3238 270.87 40.7216C271.946 41.1194 273.279 41.3183 274.867 41.3183C275.226 41.3183 275.636 41.2962 276.098 41.252C276.559 41.2078 277.046 41.1636 277.558 41.1194V49.5402C276.79 49.6286 275.918 49.717 274.944 49.8054C273.971 49.8938 273.048 49.938 272.177 49.938Z" />
  <path d="M288.468 49.5402V39.5944H300V49.5402H288.468Z" />
</svg>
