<svg width="108" height="22" viewBox="0 0 108 22" xmlns="http://www.w3.org/2000/svg">
  <path
    d="M0 21.1546V0.714355H7.87385C9.28711 0.714355 10.5352 0.961285 11.6181 1.45514C12.7193 1.949 13.5819 2.68065 14.206 3.65008C14.83 4.6195 15.142 5.81757 15.142 7.24427C15.142 8.63439 14.8208 9.81417 14.1784 10.7836C13.5544 11.753 12.6918 12.4938 11.5905 13.006C10.5076 13.4998 9.26876 13.7468 7.87385 13.7468H4.2673V21.1546H0ZM4.2673 10.0428H7.90138C8.50706 10.0428 9.03015 9.92392 9.47065 9.68613C9.91114 9.44835 10.2507 9.11911 10.4893 8.69841C10.7462 8.27772 10.8747 7.79301 10.8747 7.24427C10.8747 6.67725 10.7462 6.18339 10.4893 5.76269C10.2507 5.342 9.91114 5.01276 9.47065 4.77498C9.03015 4.53719 8.50706 4.4183 7.90138 4.4183H4.2673V10.0428Z" />
  <path d="M17.0255 21.1546V6.17425H21.1552V21.1546H17.0255ZM17.0255 4.82985V0.714355H21.1552V4.82985H17.0255Z" />
  <path
    d="M22.4427 21.1546L27.7011 13.637L22.4151 6.17425H27.2055L31.17 11.9908H29.0776L33.0421 6.17425H37.8325L32.5465 13.637L37.7774 21.1546H33.0146L29.1327 15.3381H31.1149L27.2331 21.1546H22.4427Z" />
  <path
    d="M39.0998 21.1546V6.17425H42.9541V9.82332L42.5411 9.21971C42.7614 8.06737 43.2936 7.21684 44.1379 6.6681C44.9822 6.11937 45.9917 5.84501 47.1663 5.84501C48.4144 5.84501 49.5065 6.1651 50.4425 6.80529C51.3969 7.42718 51.9934 8.26857 52.232 9.32946L51.0482 9.4392C51.5437 8.2137 52.2504 7.30829 53.1681 6.72298C54.0858 6.13766 55.1595 5.84501 56.3892 5.84501C57.4721 5.84501 58.4265 6.08279 59.2524 6.55836C60.0967 7.03393 60.7574 7.70155 61.2346 8.56123C61.7119 9.40262 61.9505 10.3903 61.9505 11.5244V21.1546H57.8208V12.4024C57.8208 11.817 57.7107 11.314 57.4904 10.8933C57.2885 10.4726 56.9949 10.1434 56.6094 9.90563C56.224 9.66784 55.756 9.54895 55.2054 9.54895C54.6731 9.54895 54.2051 9.66784 53.8013 9.90563C53.4159 10.1434 53.113 10.4726 52.8928 10.8933C52.6909 11.314 52.5899 11.817 52.5899 12.4024V21.1546H48.4603V12.4024C48.4603 11.817 48.3502 11.314 48.1299 10.8933C47.928 10.4726 47.6344 10.1434 47.2489 9.90563C46.8635 9.66784 46.3955 9.54895 45.8448 9.54895C45.3126 9.54895 44.8446 9.66784 44.4408 9.90563C44.0553 10.1434 43.7525 10.4726 43.5322 10.8933C43.3304 11.314 43.2294 11.817 43.2294 12.4024V21.1546H39.0998Z" />
  <path
    d="M68.7702 21.4839C67.6873 21.4839 66.7512 21.3101 65.962 20.9626C65.1728 20.6151 64.5671 20.1212 64.145 19.481C63.7228 18.8225 63.5118 18.0452 63.5118 17.1489C63.5118 16.3075 63.7045 15.5667 64.0899 14.9265C64.4753 14.268 65.0627 13.7193 65.8519 13.2803C66.6595 12.8413 67.6598 12.5304 68.8528 12.3475L73.4504 11.6067V14.6247L69.5961 15.3106C69.0088 15.4204 68.5591 15.6124 68.2471 15.8868C67.9351 16.1429 67.7791 16.5179 67.7791 17.0117C67.7791 17.469 67.9534 17.8257 68.3021 18.0817C68.6509 18.3378 69.0822 18.4659 69.5961 18.4659C70.2752 18.4659 70.8717 18.3195 71.3856 18.0269C71.8995 17.7342 72.2941 17.341 72.5694 16.8471C72.8631 16.3349 73.0099 15.7771 73.0099 15.1735V11.2775C73.0099 10.7104 72.7805 10.2349 72.3217 9.85075C71.8812 9.46664 71.2755 9.27458 70.5046 9.27458C69.7705 9.27458 69.1189 9.47579 68.5499 9.87819C67.9993 10.2806 67.5955 10.811 67.3386 11.4695L64.0348 9.90563C64.3285 9.06424 64.7965 8.34174 65.4389 7.73813C66.0813 7.13453 66.8522 6.6681 67.7515 6.33886C68.6509 6.00962 69.6328 5.84501 70.6973 5.84501C71.9638 5.84501 73.0834 6.07364 74.0561 6.53092C75.0289 6.9882 75.7814 7.62839 76.3137 8.45148C76.8643 9.25629 77.1396 10.1983 77.1396 11.2775V21.1546H73.2852V18.7402L74.2213 18.5756C73.7808 19.2341 73.2944 19.7828 72.7622 20.2218C72.2299 20.6425 71.6334 20.9534 70.9727 21.1546C70.3119 21.3741 69.5777 21.4839 68.7702 21.4839Z" />
  <path
    d="M79.6176 21.1546V6.17425H83.4719V9.76844L83.1966 9.24715C83.527 7.98506 84.0684 7.13453 84.8209 6.69554C85.5918 6.23826 86.5003 6.00962 87.5465 6.00962H88.4275V9.57639H87.1335C86.1241 9.57639 85.3073 9.88733 84.6833 10.5092C84.0592 11.1128 83.7472 11.9725 83.7472 13.0883V21.1546H79.6176Z" />
  <path
    d="M97.4652 21.3193C95.6481 21.3193 94.2349 20.8345 93.2254 19.8651C92.2343 18.8774 91.7387 17.5056 91.7387 15.7496V9.74101H89.2059V6.17425H89.3435C90.1144 6.17425 90.7017 5.98219 91.1055 5.59808C91.5277 5.21396 91.7387 4.63779 91.7387 3.86957V2.7721H95.8684V6.17425H99.3923V9.74101H95.8684V15.4753C95.8684 15.9874 95.9601 16.4173 96.1437 16.7648C96.3272 17.094 96.6117 17.341 96.9971 17.5056C97.3826 17.6702 97.8598 17.7525 98.4287 17.7525C98.5572 17.7525 98.7041 17.7434 98.8692 17.7251C99.0344 17.7068 99.2088 17.6885 99.3923 17.6702V21.1546C99.117 21.1912 98.805 21.2278 98.4563 21.2644C98.1076 21.301 97.7772 21.3193 97.4652 21.3193Z" />
  <path d="M103.299 21.1546V17.0391H107.429V21.1546H103.299Z" />
</svg>
