<svg width="148" height="142" viewBox="0 0 148 142" fill="none" xmlns="http://www.w3.org/2000/svg">
  <path d="M71.3712 58.0563H49.2266V35.8555" stroke="currentColor" stroke-width="3.5" stroke-miterlimit="10"
    stroke-linecap="round" stroke-linejoin="round" />
  <path d="M145.777 2.33521H2.22266V18.0849H145.777V2.33521Z" stroke="currentColor" stroke-width="3.5"
    stroke-miterlimit="10" stroke-linecap="round" stroke-linejoin="round" />
  <path d="M9.77344 95.8557V20.2595" stroke="currentColor" stroke-width="3.5" stroke-miterlimit="10"
    stroke-linecap="round" stroke-linejoin="round" />
  <path d="M138.227 20.2595V95.8557" stroke="currentColor" stroke-width="3.5" stroke-miterlimit="10"
    stroke-linecap="round" stroke-linejoin="round" />
  <path d="M74 116.111V121.603" stroke="currentColor" stroke-width="3.5" stroke-miterlimit="10" stroke-linecap="round"
    stroke-linejoin="round" />
  <path
    d="M73.9997 139.665C78.5494 139.665 82.2377 135.968 82.2377 131.407C82.2377 126.847 78.5494 123.15 73.9997 123.15C69.45 123.15 65.7617 126.847 65.7617 131.407C65.7617 135.968 69.45 139.665 73.9997 139.665Z"
    stroke="currentColor" stroke-width="3.5" stroke-miterlimit="10" stroke-linecap="round" stroke-linejoin="round" />
  <path
    d="M49.2284 82.8876C62.9093 82.8876 73.9998 71.7707 73.9998 58.0573C73.9998 44.3439 62.9093 33.2271 49.2284 33.2271C35.5476 33.2271 24.457 44.3439 24.457 58.0573C24.457 71.7707 35.5476 82.8876 49.2284 82.8876Z"
    stroke="currentColor" stroke-width="3.5" stroke-miterlimit="10" stroke-linecap="round" stroke-linejoin="round" />
  <path d="M120.525 33.2271H88.5859V52.8035H120.525V33.2271Z" stroke="currentColor" stroke-width="3.5"
    stroke-miterlimit="10" stroke-linecap="round" stroke-linejoin="round" />
  <path d="M88.5859 66.4119H120.525" stroke="currentColor" stroke-width="3.5" stroke-miterlimit="10"
    stroke-linecap="round" stroke-linejoin="round" />
  <path d="M88.5859 79.3726H120.525" stroke="currentColor" stroke-width="3.5" stroke-miterlimit="10"
    stroke-linecap="round" stroke-linejoin="round" />
  <path d="M145.777 98.0303H2.22266V113.78H145.777V98.0303Z" stroke="currentColor" stroke-width="3.5"
    stroke-miterlimit="10" stroke-linecap="round" stroke-linejoin="round" />
</svg>
