<svg width="108" height="128" viewBox="0 0 108 128" fill="none" xmlns="http://www.w3.org/2000/svg">
  <path fill-rule="evenodd" clip-rule="evenodd"
    d="M78.5711 87.6999H52.2461C51.2711 87.6999 50.5211 86.9499 50.5211 85.9749C50.5211 85.0749 51.2711 84.2499 52.2461 84.2499H78.5711V71.4999H74.5211H74.4461H74.3711H74.2961H74.1461L73.9961 71.4249H73.8461H73.6961H73.6211L73.4711 71.3499H73.3211L73.1711 71.2749H73.0961H72.9461L72.7961 71.1999L72.7211 71.1249H72.5711C72.4961 71.0499 72.4211 71.0499 72.3461 70.9749C72.1961 70.9749 72.0461 70.8999 71.9711 70.8249C70.2461 69.9249 69.1211 68.1249 69.1211 66.0249V38.9499C69.1211 37.2249 69.8711 35.7249 71.0711 34.7499L71.2211 34.6749L71.2961 34.5999L71.3711 34.5249H71.4461L71.5211 34.4499L71.5961 34.3749H71.6711V34.2999H71.7461L71.8211 34.2249H71.8961L71.9711 34.1499H72.0461L72.1211 34.0749C72.8711 33.6999 73.6961 33.4749 74.5211 33.4749H78.5711V30.9249C78.5711 28.8999 76.9961 27.3249 74.9711 27.3249H32.2211C30.1961 27.3249 28.6211 28.8999 28.6211 30.9249V40.2999H54.9461C55.9211 40.2999 56.6711 41.0499 56.6711 42.0249C56.6711 42.9249 55.9211 43.7499 54.9461 43.7499H28.6211V56.4999H32.6711H32.7461H32.8211H32.8961H32.9711H33.0461L33.1961 56.5749H33.3461H33.4211H33.4961H33.5711H33.6461L33.7211 56.6499H33.7961H33.8711L34.0211 56.7249H34.0961H34.2461V56.7999H34.3961L34.4711 56.8749H34.5461H34.6211L34.7711 56.9499L34.8461 57.0249H34.9961V57.0999H35.0711H35.1461L35.2211 57.1749L35.3711 57.2499L35.4461 57.3249L35.5961 57.3999H35.6711L35.7461 57.4749L35.8211 57.5499L35.8961 57.6249L35.9711 57.6999L36.0461 57.7749L36.1961 57.8499H36.2711V57.9249H36.3461V57.9999H36.4211V58.0749C36.4961 58.1499 36.5711 58.2249 36.7211 58.2999V58.3749L36.8711 58.5249L36.9461 58.5999L37.0211 58.6749V58.7499L37.0961 58.8999L37.1711 58.9749L37.2461 59.0499C37.2461 59.1249 37.3211 59.1999 37.3211 59.2749L37.3961 59.3499L37.4711 59.4249V59.4999L37.5461 59.5749V59.6499L37.6211 59.7249V59.8749L37.6961 59.9499C37.6961 60.0249 37.7711 60.0999 37.7711 60.0999V60.1749V60.2499H37.8461V60.3249V60.3999V60.4749V60.5499C37.9211 60.5499 37.9211 60.6249 37.9211 60.6999L37.9961 60.8499V60.9999V61.1499V61.2249L38.0711 61.3749V61.5249V61.6749V61.8249V61.9749V85.8249V89.0499C38.0711 89.3499 38.0711 89.6499 37.9961 89.8749C37.9961 90.0249 37.9961 90.1749 37.9211 90.2499C37.9211 90.3999 37.8461 90.5499 37.8461 90.6999L37.7711 90.7749V90.8499V90.9249L37.6961 91.0749C37.6961 91.1499 37.6211 91.2249 37.6211 91.2999L37.5461 91.3749V91.4499L37.4711 91.5249L37.3961 91.5999V91.6749L37.3211 91.7499V91.8249V91.8999H37.2461V91.9749L37.1711 92.0499V92.1249H37.0961V92.1999H37.0211V92.2749C36.9461 92.3499 36.9461 92.3499 36.9461 92.4249L36.7961 92.4999L36.7211 92.5749V92.6499C35.7461 93.7749 34.2461 94.5249 32.6711 94.5249H28.6211V97.0749C28.6211 99.0999 30.1961 100.675 32.2211 100.675H74.9711C76.9961 100.675 78.5711 99.0999 78.5711 97.0749V87.6999ZM37.2461 59.0499C37.2461 59.1249 37.3211 59.1999 37.3211 59.2749L37.2461 59.0499ZM82.0961 127.975H25.0961C20.6711 127.975 17.0711 124.375 17.0711 120.025V110.5V94.5249H5.52109H5.37109L5.22109 94.4499H5.14609H4.99609H4.84609H4.69609L4.54609 94.3749H4.47109H4.39609H4.32109L4.17109 94.2999C1.84609 93.6999 0.121094 91.5999 0.121094 89.0499V61.9749C0.121094 58.9749 2.52109 56.4999 5.52109 56.4999H17.0711V17.4999V7.9749C17.0711 3.6249 20.6711 0.0249023 25.0961 0.0249023H82.0961C86.5211 0.0249023 90.1211 3.6249 90.1211 7.9749V17.4249V17.4999V17.5749V33.4749H101.671C104.671 33.4749 107.071 35.9499 107.071 38.9499V66.0249C107.071 69.0249 104.671 71.4999 101.671 71.4999H90.1211V110.5V120.025C90.1211 124.375 86.5211 127.975 82.0961 127.975ZM18.7961 91.0749H23.3711L20.4461 88.1499L20.3711 88.0749L10.8461 78.5499L3.49609 85.9749V89.0499V89.1249V89.1999V89.2749V89.3499L3.57109 89.4249V89.4999V89.5749V89.6499L3.64609 89.7249V89.7999V89.8749H3.72109V89.9499V90.0249L3.79609 90.0999V90.1749H3.87109V90.2499L3.94609 90.3249L4.02109 90.3999L4.09609 90.4749L4.17109 90.5499V90.6249H4.24609L4.32109 90.6999L4.39609 90.7749H4.47109L4.54609 90.8499H4.62109L4.69609 90.9249H4.77109H4.84609V90.9999H4.92109H4.99609H5.07109L5.14609 91.0749H5.22109H5.29609H5.37109H5.44609H5.52109H18.7961ZM72.5711 66.3249V66.3999V66.4749V66.5499V66.6249C72.6461 66.6249 72.6461 66.6999 72.6461 66.7749V66.8499H72.7211V66.9249V66.9999H72.7961V67.0749L72.8711 67.1499V67.2249H72.9461V67.2999L73.0211 67.3749C73.0961 67.4499 73.0961 67.5249 73.1711 67.5249V67.5999C73.5461 67.8999 74.0711 68.0499 74.5211 68.0499H80.2961H80.3711H88.3961H88.4711H101.671C102.796 68.0499 103.696 67.1499 103.696 66.0249V38.9499C103.696 37.8249 102.796 36.9249 101.671 36.9249H74.5211C73.6211 36.9249 72.7961 37.5999 72.5711 38.4249V38.4999V38.5749V38.6499V38.7249V38.7999H72.4961V38.8749V38.9499V66.0249V66.0999V66.1749H72.5711V66.2499V66.3249ZM20.5211 94.5249V108.775H86.6711V71.4999H82.0211V85.8999V85.9749V86.0499V97.0749C82.0211 100.975 78.8711 104.125 74.9711 104.125H32.2211C28.3211 104.125 25.1711 100.975 25.1711 97.0749V94.5249H20.5211ZM20.5211 112.225V120.025C20.5211 122.5 22.5461 124.6 25.0961 124.6H82.0961C84.6461 124.6 86.6711 122.5 86.6711 120.025V112.225H20.5211ZM82.0211 33.4749H86.6711V19.2249H20.5211V56.4999H25.1711V30.9249C25.1711 27.0249 28.3211 23.8749 32.2211 23.8749H74.9711C78.8711 23.8749 82.0211 27.0249 82.0211 30.9249V33.4749ZM86.6711 15.7749V7.9749C86.6711 5.4999 84.6461 3.3999 82.0961 3.3999H67.6961V4.8999C67.6961 7.6749 65.4461 9.8499 62.7461 9.8499H44.4461C41.7461 9.8499 39.4961 7.6749 39.4961 4.8999V3.3999H25.0961C22.5461 3.3999 20.5211 5.4999 20.5211 7.9749V15.7749H86.6711ZM42.9461 3.3999V4.8999C42.9461 5.7999 43.6211 6.4749 44.4461 6.4749H62.7461C63.5711 6.4749 64.2461 5.7999 64.2461 4.8999V3.3999H42.9461ZM59.9711 120.1H46.6211C45.7211 120.1 44.9711 119.35 44.9711 118.375C44.9711 117.475 45.7211 116.725 46.6211 116.725H59.9711C60.9461 116.725 61.6961 117.475 61.6961 118.375C61.6961 119.35 60.9461 120.1 59.9711 120.1ZM28.0961 91.0749H32.6711C33.7211 91.0749 34.6961 90.1749 34.6961 89.0499V86.5749L29.5211 81.3999L24.0461 86.9499L27.1961 90.0999L27.7961 90.6999H27.8711V90.7749C27.9461 90.8499 28.0211 90.9249 28.0961 91.0749ZM34.6961 81.6999V61.9749C34.6961 61.5999 34.6211 61.2999 34.4711 61.0749C34.3961 60.9999 34.3961 60.9999 34.3961 60.9249L34.3211 60.8499V60.7749H34.2461V60.6999L34.1711 60.6249V60.5499H34.0961L34.0211 60.4749L33.9461 60.3999L33.8711 60.3249H33.7961V60.2499H33.7211L33.6461 60.1749H33.5711V60.0999H33.4961C33.2711 60.0249 32.9711 59.9499 32.6711 59.9499H5.52109C4.39609 59.9499 3.49609 60.8499 3.49609 61.9749V81.0999L9.64609 74.9499C10.3211 74.2749 11.4461 74.2749 12.0461 74.9499L21.6461 84.4749L28.3211 77.7999C28.9961 77.1249 30.1211 77.1249 30.7211 77.7999L34.6961 81.6999ZM72.5711 71.1249C72.4961 71.0499 72.4211 71.0499 72.3461 70.9749L72.5711 71.1249ZM22.0961 76.8999C18.4211 76.8999 15.4211 73.8999 15.4211 70.2249C15.4211 66.5499 18.4211 63.5499 22.0961 63.5499C25.7711 63.5499 28.7711 66.5499 28.7711 70.2249C28.7711 73.8999 25.7711 76.8999 22.0961 76.8999ZM22.0961 66.9249C20.2961 66.9249 18.7961 68.4249 18.7961 70.2249C18.7961 72.0249 20.2961 73.5249 22.0961 73.5249C23.8961 73.5249 25.3961 72.0249 25.3961 70.2249C25.3961 68.4249 23.8961 66.9249 22.0961 66.9249ZM97.8461 46.2999H86.9711C86.0711 46.2999 85.2461 45.5499 85.2461 44.5749C85.2461 43.6749 86.0711 42.8499 86.9711 42.8499H97.8461C98.7461 42.8499 99.4961 43.6749 99.4961 44.5749C99.4961 45.5499 98.7461 46.2999 97.8461 46.2999ZM81.4961 46.2999H78.4211C77.4461 46.2999 76.6961 45.5499 76.6961 44.5749C76.6961 43.6749 77.4461 42.8499 78.4211 42.8499H81.4961C82.4711 42.8499 83.2211 43.6749 83.2211 44.5749C83.2211 45.5499 82.4711 46.2999 81.4961 46.2999ZM97.8461 54.1749H95.0711C94.0961 54.1749 93.3461 53.4249 93.3461 52.5249C93.3461 51.5499 94.0961 50.7999 95.0711 50.7999H97.8461C98.7461 50.7999 99.4961 51.5499 99.4961 52.5249C99.4961 53.4249 98.7461 54.1749 97.8461 54.1749ZM88.0961 54.1749H78.4211C77.4461 54.1749 76.6961 53.4249 76.6961 52.5249C76.6961 51.5499 77.4461 50.7999 78.4211 50.7999H88.0961C88.9961 50.7999 89.8211 51.5499 89.8211 52.5249C89.8211 53.4249 88.9961 54.1749 88.0961 54.1749ZM97.8461 62.1249H89.4461C88.5461 62.1249 87.7211 61.3749 87.7211 60.3999C87.7211 59.4999 88.5461 58.6749 89.4461 58.6749H97.8461C98.7461 58.6749 99.4961 59.4999 99.4961 60.3999C99.4961 61.3749 98.7461 62.1249 97.8461 62.1249ZM82.3211 62.1249H78.4211C77.4461 62.1249 76.6961 61.3749 76.6961 60.3999C76.6961 59.4999 77.4461 58.6749 78.4211 58.6749H82.3211C83.2211 58.6749 84.0461 59.4999 84.0461 60.3999C84.0461 61.3749 83.2211 62.1249 82.3211 62.1249Z"
    fill="currentColor" />
</svg>
